<?xml version="1.0" ?><!-- Uploaded to: SVG Repo, www.svgrepo.com, Generator: SVG Repo Mixer Tools -->
<svg width="10px" height="10px" viewBox="0 0 2050 2050" data-name="Layer 3" id="Layer_3" xmlns="http://www.w3.org/2000/svg"><defs><style>.cls-1{fill:#EEF0F2;}.cls-2{fill:#000;}</style></defs><title/><path class="cls-1" d="M1658.7,723.4v-53a171.2,171.2,0,0,0-171.2-171.2h-925A171.2,171.2,0,0,0,391.3,670.4v53a20.1,20.1,0,0,0,20.1,20.1H1638.6A20.1,20.1,0,0,0,1658.7,723.4Z"/><path class="cls-1" d="M391.3,853.6v526a171.2,171.2,0,0,0,171.2,171.2h925a171.2,171.2,0,0,0,171.2-171.2v-526a20.1,20.1,0,0,0-20.1-20.1H411.4A20.1,20.1,0,0,0,391.3,853.6Z"/><circle class="cls-2" cx="559.2" cy="624.1" r="38.7"/><circle class="cls-2" cx="678.5" cy="624.1" r="38.7"/><circle class="cls-2" cx="797.8" cy="624.1" r="38.7"/></svg>